<svg xmlns="http://www.w3.org/2000/svg" width="14" height="14" viewBox="0 0 14 14">
  <g id="comments" transform="translate(-1.63 0)">
    <g id="Group_1321" data-name="Group 1321" transform="translate(1.63 0)">
      <path id="Path_305" data-name="Path 305" d="M13.625,2.082A7.081,7.081,0,0,0,8.429,0a6.964,6.964,0,0,0-6.8,7.155,6.578,6.578,0,0,0,.478,2.325A6.868,6.868,0,0,0,3.1,11.2L2.524,12.56a1.03,1.03,0,0,0,.544,1.359,1.05,1.05,0,0,0,.594.065l2.672-.458a7.025,7.025,0,0,0,9.287-6.238A6.872,6.872,0,0,0,13.625,2.082ZM8.116,9.728H6.285a.524.524,0,1,1,0-1.048H8.116a.53.53,0,0,1,.528.524A.519.519,0,0,1,8.116,9.728ZM10.969,7.6H6.285a.53.53,0,0,1-.528-.524.519.519,0,0,1,.528-.524h4.685a.524.524,0,1,1,0,1.048Zm0-2.145H6.285a.524.524,0,1,1,0-1.048h4.685a.53.53,0,0,1,.528.524A.541.541,0,0,1,10.969,5.455Z" transform="translate(-1.63 0)" fill="#7de2bb"/>
    </g>
  </g>
</svg>
