<svg xmlns="http://www.w3.org/2000/svg" width="299.967" height="235.242" viewBox="0 0 299.967 235.242">
  <g id="Group_1312" data-name="Group 1312" transform="translate(-57.016 -225.758)">
    <g id="undraw_ideas_flow_cy7b" transform="translate(57.017 225.758)">
      <path id="Path_51" data-name="Path 51" d="M351.846,229.569l0-.5c1,0,2.016-.014,3.018-.051l.018.5C353.875,229.555,352.853,229.572,351.846,229.569Zm-3.037-.068c-1.006-.043-2.026-.106-3.032-.189l.041-.5c1,.082,2.013.145,3.012.188Zm9.109-.156-.038-.5c1-.077,2.009-.175,3-.292l.059.5C359.94,229.169,358.923,229.268,357.918,229.345ZM342.754,229c-1-.123-2.015-.268-3.008-.431l.081-.5c.986.162,1.992.306,2.988.428Zm21.2-.365-.079-.5c.987-.156,1.987-.335,2.971-.532l.1.493c-.991.2-2,.379-2.991.536Zm-27.193-.618c-.989-.2-1.986-.43-2.963-.673l.121-.488c.97.241,1.961.466,2.943.668Zm33.151-.575-.119-.489c.975-.237,1.957-.5,2.918-.771l.138.484c-.968.277-1.957.538-2.938.776Zm-39.047-.89c-.969-.283-1.944-.59-2.9-.911l.161-.477c.948.319,1.917.623,2.879.9Zm44.888-.781-.158-.478c.951-.314,1.908-.652,2.846-1.005l.177.471c-.944.355-1.908.7-2.865,1.012Zm-50.655-1.16c-.943-.361-1.892-.746-2.822-1.146l.2-.462c.924.4,1.867.78,2.8,1.138Zm56.334-.976-.2-.463c.921-.39,1.846-.8,2.748-1.229l.215.455c-.909.429-1.84.845-2.767,1.237ZM319.5,222.208c-.912-.437-1.827-.9-2.718-1.37l.236-.444c.885.469,1.794.927,2.7,1.361Zm67.412-1.157-.233-.446c.888-.463,1.777-.95,2.642-1.448l.251.436c-.872.5-1.767.991-2.66,1.457Zm-72.79-1.692c-.875-.51-1.749-1.043-2.6-1.584l.271-.424c.843.538,1.711,1.067,2.58,1.574Zm78.05-1.329-.268-.426c.845-.531,1.693-1.089,2.519-1.656l.285.415c-.832.571-1.685,1.132-2.536,1.667Zm-83.179-1.942c-.83-.578-1.658-1.179-2.461-1.787l.3-.4c.8.6,1.62,1.2,2.444,1.775Zm88.183-1.494-.3-.4c.8-.6,1.6-1.221,2.38-1.854l.317.391c-.785.637-1.591,1.265-2.4,1.866Zm-93.03-2.177c-.779-.641-1.556-1.306-2.308-1.978l.335-.375c.748.667,1.519,1.328,2.293,1.964Zm97.745-1.649-.332-.377c.752-.662,1.5-1.348,2.225-2.039l.347.364c-.729.7-1.483,1.386-2.24,2.052Zm-102.28-2.4c-.723-.7-1.444-1.425-2.142-2.155l.364-.348c.693.726,1.409,1.446,2.128,2.141Zm106.676-1.8-.361-.35c.7-.719,1.387-1.463,2.055-2.211l.375.335c-.673.753-1.369,1.5-2.069,2.226Zm-110.871-2.6c-.668-.758-1.328-1.538-1.962-2.319l.391-.317c.629.775,1.285,1.55,1.949,2.3Zm114.919-1.937-.389-.32c.638-.775,1.268-1.572,1.873-2.37l.4.3c-.609.8-1.243,1.605-1.885,2.385Zm-118.749-2.776c-.6-.807-1.2-1.637-1.769-2.467l.415-.285c.567.825,1.158,1.649,1.758,2.45ZM414.009,197.2l-.413-.287c.574-.824,1.138-1.67,1.677-2.513l.424.271C415.155,195.516,414.587,196.368,414.009,197.2Zm-125.86-2.933c-.536-.852-1.063-1.726-1.565-2.6l.436-.251c.5.867,1.022,1.736,1.555,2.582Zm129.134-2.194-.434-.253c.506-.869,1-1.758,1.47-2.642l.444.236c-.472.89-.97,1.785-1.48,2.659Zm-132.158-3.066c-.466-.892-.92-1.805-1.35-2.715l.455-.215c.427.9.878,1.812,1.341,2.7Zm135.009-2.311-.454-.218c.434-.9.855-1.831,1.252-2.753l.462.2C420.995,184.851,420.571,185.784,420.134,186.694Zm-137.6-3.171c-.393-.928-.772-1.874-1.126-2.813l.471-.177c.351.932.728,1.873,1.118,2.794ZM422.542,181.1l-.47-.18c.36-.94.7-1.9,1.025-2.847l.477.161c-.322.956-.669,1.92-1.032,2.867ZM280.4,177.846c-.317-.957-.619-1.934-.9-2.9l.484-.138c.276.962.575,1.933.89,2.884Zm144.089-2.51-.483-.141c.281-.959.546-1.939.789-2.913l.488.121C425.036,173.383,424.769,174.37,424.486,175.335Zm-145.763-3.33c-.239-.98-.46-1.978-.658-2.966l.493-.1c.2.981.417,1.973.654,2.946Zm147.231-2.565-.493-.1c.2-.979.387-1.978.55-2.967l.5.082c-.164,1-.35,2-.554,2.988Zm-148.427-3.392c-.158-.994-.3-2.006-.416-3.01l.5-.059c.118,1,.257,2,.414,2.989Zm149.413-2.6-.5-.062c.123-1,.227-2.005.31-3l.5.041c-.083,1-.188,2.02-.311,3.022Zm-150.125-3.43c-.078-1.005-.137-2.026-.174-3.034l.5-.019c.037,1,.1,2.015.173,3.013Zm150.627-2.624-.5-.022c.043-1,.066-2.018.069-3.017v-.167l.5,0v.166C427.51,155.36,427.487,156.382,427.443,157.391Zm-150.352-3.446-.5,0v-.084c0-.981.025-1.975.066-2.953l.5.021c-.041.971-.063,1.958-.066,2.934Zm149.862-2.777c-.038-1-.1-2.013-.176-3.013l.5-.039c.079,1.007.139,2.028.177,3.033Zm-149.61-3.253-.5-.041c.082-1.007.186-2.024.308-3.023l.5.061C277.529,145.9,277.426,146.915,277.344,147.915Zm149.138-2.764c-.118-.993-.258-2-.417-2.989l.5-.08c.16,1,.3,2.01.42,3.009Zm-148.405-3.227-.5-.081c.163-1,.348-2,.551-2.988l.493.1c-.2.981-.385,1.979-.547,2.968Zm147.451-2.732c-.2-.984-.42-1.975-.657-2.946l.489-.12c.239.977.461,1.975.661,2.966Zm-146.237-3.18-.488-.121c.242-.978.509-1.965.791-2.934l.483.141C279.795,134.061,279.531,135.041,279.29,136.013Zm144.8-2.683c-.277-.962-.577-1.932-.894-2.883l.478-.159c.318.957.621,1.934.9,2.9Zm-143.116-3.111-.477-.16c.321-.957.668-1.922,1.029-2.868l.47.179c-.359.94-.7,1.9-1.022,2.849ZM422.19,127.6c-.354-.937-.732-1.877-1.121-2.793l.463-.2c.392.923.772,1.869,1.129,2.812Zm-139.054-3.037-.462-.2c.4-.928.822-1.861,1.257-2.773l.454.217c-.433.906-.853,1.832-1.249,2.754Zm136.7-2.5c-.428-.9-.88-1.81-1.343-2.7l.445-.234c.467.892.922,1.8,1.353,2.714Zm-134.091-2.953-.445-.235c.472-.892.969-1.787,1.477-2.661l.435.253C286.707,117.335,286.213,118.225,285.745,119.111Zm131.3-2.383c-.5-.868-1.024-1.736-1.557-2.58l.425-.269c.537.85,1.064,1.724,1.568,2.6Zm-128.256-2.841-.424-.27c.542-.851,1.11-1.7,1.686-2.532l.413.287C289.886,112.195,289.323,113.041,288.784,113.887Zm125.039-2.256c-.568-.824-1.16-1.648-1.76-2.448l.4-.3c.6.806,1.2,1.635,1.772,2.465Zm-121.591-2.7-.4-.3c.609-.8,1.242-1.608,1.882-2.387l.389.319c-.636.774-1.265,1.572-1.87,2.372ZM410.2,106.806c-.632-.776-1.289-1.55-1.952-2.3l.377-.333c.667.755,1.328,1.535,1.965,2.316Zm-114.14-2.545-.375-.335c.67-.752,1.366-1.5,2.067-2.228l.362.35c-.7.721-1.387,1.466-2.053,2.213Zm110.146-1.977c-.694-.725-1.41-1.444-2.13-2.138l.349-.362c.725.7,1.446,1.423,2.144,2.153ZM300.258,99.918l-.348-.364c.728-.7,1.481-1.387,2.237-2.055l.333.377c-.751.663-1.5,1.35-2.223,2.041Zm101.609-1.825c-.75-.667-1.522-1.327-2.3-1.962l.319-.389c.779.639,1.556,1.3,2.31,1.975Zm-97.084-2.166-.318-.39c.783-.637,1.588-1.265,2.393-1.868l.3.4c-.8.6-1.6,1.224-2.378,1.856ZM397.2,94.263c-.8-.6-1.624-1.2-2.446-1.772l.287-.413c.828.575,1.656,1.175,2.463,1.784Zm-87.589-1.951-.285-.414c.831-.572,1.684-1.134,2.534-1.67l.268.426C311.282,91.185,310.435,91.743,309.609,92.311Zm82.627-1.494c-.846-.539-1.715-1.067-2.582-1.571l.253-.435c.872.507,1.747,1.039,2.6,1.581ZM314.708,89.1l-.251-.436c.871-.5,1.766-.993,2.659-1.46l.233.446c-.887.464-1.775.952-2.641,1.451Zm72.3-1.316c-.887-.468-1.8-.925-2.7-1.358l.217-.454c.912.435,1.827.9,2.72,1.367ZM320.045,86.3l-.215-.455c.909-.429,1.839-.847,2.766-1.24l.2.463c-.921.391-1.845.805-2.747,1.232Zm61.509-1.128c-.923-.4-1.867-.777-2.8-1.135l.179-.47c.944.36,1.894.744,2.823,1.143Zm-55.967-1.223-.178-.471c.942-.356,1.906-.7,2.864-1.015l.158.478C327.479,83.26,326.522,83.6,325.586,83.953Zm50.314-.932c-.95-.318-1.919-.622-2.88-.9l.141-.483c.968.281,1.944.587,2.9.907Zm-44.585-.968-.139-.483c.968-.278,1.957-.541,2.937-.78l.119.489C333.258,81.515,332.276,81.776,331.314,82.052Zm38.79-.716c-.971-.24-1.961-.464-2.944-.665l.1-.493c.99.2,1.987.428,2.964.669Zm-32.927-.713-.1-.493c.987-.2,1.993-.38,2.99-.539l.079.5C339.157,80.245,338.157,80.425,337.177,80.622Zm27.015-.5c-.989-.161-1.994-.3-2.988-.425l.061-.5c1,.122,2.013.266,3.008.428Zm-21.055-.454-.059-.5c1-.119,2.019-.219,3.024-.3l.039.5c-1,.078-2.009.177-3,.295ZM358.2,79.4c-1-.081-2.011-.143-3.013-.184l.021-.5c1.008.042,2.029.1,3.032.186Zm-9.048-.194-.019-.5c1.006-.038,2.028-.057,3.038-.055v.5c-1,0-2.018.017-3.018.055Z" transform="translate(-214.667 -62.139)" fill="#3f3d56"/>
      <path id="Path_52" data-name="Path 52" d="M493.938,124.737l-47.949,83.051-15.851,27.454-3.02-1.743-30.159-17.412-22.514-13-81.861-47.261L304.038,0Z" transform="translate(-212.918)" fill="#f1f1f1"/>
      <path id="Path_53" data-name="Path 53" d="M255.081,358.285a27.119,27.119,0,0,1,35.961-19.069c5.156,1.945,9.578,5.4,13.694,8.987,7.95,6.922,15.651,14.127,25.255,18.745,8.578,4.125,18.238,5.878,27.565,3.417a28.679,28.679,0,0,0,11.483-5.918,27.036,27.036,0,0,0,7.392-10.995c3.332-8.775,3.266-18.372,5.811-27.351a29.779,29.779,0,0,1,6.716-12.525,32.839,32.839,0,0,1,11.9-7.794c10.52-4.158,21.906-3.821,33.019-3.674,10.5.139,21.266-.042,31.1-4.178a33.326,33.326,0,0,0,11.711-7.964,36.792,36.792,0,0,0,7.385-13.131c.848-2.468,1.524-4.989,2.132-7.525.226-.944-1.229-1.347-1.455-.4-1.258,5.251-2.822,10.508-5.589,15.184a29.106,29.106,0,0,1-10.659,10.431c-9.269,5.325-20.211,6.135-30.668,6.111-11.222-.025-22.7-.86-33.6,2.39-8.871,2.645-17.035,7.944-21.143,16.485-4.089,8.5-4.232,18.15-6.267,27.213a34.449,34.449,0,0,1-5.234,12.712,24.526,24.526,0,0,1-10.858,8.3c-9.161,3.671-19.376,2.594-28.268-1.3-9.969-4.365-17.954-11.636-26.024-18.736-3.887-3.42-7.976-6.75-12.694-8.96a28.661,28.661,0,0,0-40.125,19.147c-.231.943,1.224,1.346,1.455.4Z" transform="translate(-197.938 -200.204)" fill="#3f3d56"/>
      <path id="Path_54" data-name="Path 54" d="M580.594,653.982H555.32a88.4,88.4,0,0,1,0-30.134h25.274A54.223,54.223,0,0,0,580.594,653.982Z" transform="translate(-416.562 -458.89)" fill="#7de2bb"/>
      <path id="Path_55" data-name="Path 55" d="M304.384,543.1h25.274a88.4,88.4,0,0,0,0-30.134H304.384A54.222,54.222,0,0,1,304.384,543.1Z" transform="translate(-234.894 -378.197)" fill="#fff"/>
      <path id="Path_56" data-name="Path 56" d="M321.79,552.732a6.05,6.05,0,0,1,5.236.394,12.353,12.353,0,0,0,4.074,1.885,6.3,6.3,0,0,0,3.7-.565c1.472-.72,2.381-2.105,3.642-3.1.707-.558-.29-1.542-.99-.99-1.231.971-2.109,2.382-3.609,2.979a5.141,5.141,0,0,1-4.624-.526,12.881,12.881,0,0,0-3.615-1.745,7.394,7.394,0,0,0-4.183.318c-.837.311-.475,1.665.372,1.35Z" transform="translate(-246.945 -405.291)" fill="#f2f2f2"/>
      <path id="Path_57" data-name="Path 57" d="M321.791,577.587a6.05,6.05,0,0,1,5.236.394,12.352,12.352,0,0,0,4.074,1.885,6.3,6.3,0,0,0,3.7-.565c1.472-.72,2.381-2.105,3.642-3.1.707-.558-.29-1.542-.99-.99-1.231.971-2.109,2.382-3.609,2.979a5.141,5.141,0,0,1-4.624-.526,12.881,12.881,0,0,0-3.615-1.745,7.394,7.394,0,0,0-4.183.318c-.837.311-.475,1.665.372,1.35Z" transform="translate(-246.945 -423.378)" fill="#f2f2f2"/>
      <path id="Path_58" data-name="Path 58" d="M581.149,649.582a6.05,6.05,0,0,0-5.236.394,12.352,12.352,0,0,1-4.074,1.885,6.3,6.3,0,0,1-3.7-.565c-1.472-.72-2.381-2.105-3.642-3.1-.707-.558.29-1.542.99-.99,1.231.971,2.109,2.382,3.609,2.979a5.141,5.141,0,0,0,4.624-.526,12.881,12.881,0,0,1,3.615-1.745,7.393,7.393,0,0,1,4.183.318c.837.311.475,1.665-.372,1.35Z" transform="translate(-424.007 -475.77)" fill="#f2f2f2"/>
      <path id="Path_59" data-name="Path 59" d="M581.149,673.581a6.05,6.05,0,0,0-5.236.394,12.353,12.353,0,0,1-4.074,1.885,6.3,6.3,0,0,1-3.7-.565c-1.472-.72-2.381-2.105-3.642-3.1-.707-.558.29-1.542.99-.99,1.231.971,2.109,2.382,3.609,2.979a5.141,5.141,0,0,0,4.624-.526,12.88,12.88,0,0,1,3.615-1.745,7.393,7.393,0,0,1,4.183.318c.837.311.475,1.665-.372,1.35Z" transform="translate(-424.007 -493.234)" fill="#f2f2f2"/>
      <path id="Path_60" data-name="Path 60" d="M581.149,697.579a6.05,6.05,0,0,0-5.236.394,12.352,12.352,0,0,1-4.074,1.885,6.3,6.3,0,0,1-3.7-.565c-1.472-.72-2.381-2.105-3.642-3.1-.707-.558.29-1.542.99-.99,1.231.971,2.109,2.382,3.609,2.979a5.141,5.141,0,0,0,4.624-.526,12.88,12.88,0,0,1,3.615-1.745,7.393,7.393,0,0,1,4.183.318c.837.311.475,1.665-.372,1.35Z" transform="translate(-424.007 -510.698)" fill="#f2f2f2"/>
      <path id="Path_61" data-name="Path 61" d="M697.765,200.368c-5.409-9.14-16.11-9.565-16.11-9.565s-10.428-1.333-17.117,12.586c-6.235,12.974-14.84,25.5-1.385,28.538l2.43-7.564,1.505,8.127a52.652,52.652,0,0,0,5.757.1c14.409-.465,28.131.136,27.689-5.034C699.947,220.68,702.97,209.162,697.765,200.368Z" transform="translate(-490.789 -143.733)" fill="#2f2e41"/>
      <path id="Path_62" data-name="Path 62" d="M609.507,544.754l-18.242,12.668s-10.641,11.148-3.04,11.148,10.641-9.628,10.641-9.628l23.309-10.134Z" transform="translate(-439.457 -401.333)" fill="#ffb8b8"/>
      <path id="Path_63" data-name="Path 63" d="M668.912,363.312s-15.962,49.4-10.894,51.938,16.215,4.054,16.215,4.054Z" transform="translate(-491.514 -269.295)" fill="#d0cde1"/>
      <path id="Path_64" data-name="Path 64" d="M668.912,363.312s-15.962,49.4-10.894,51.938,16.215,4.054,16.215,4.054Z" transform="translate(-491.514 -269.295)" opacity="0.1"/>
      <path id="Path_65" data-name="Path 65" d="M713.944,609.119l-15.851,27.454-3.02-1.743C689.3,612.69,682.34,586.3,682.34,586.3l-17.426,31.116-22.514-13c5.389-11.6,14.6-38.892,14.6-38.892l41.046-20.775s13.174,8.107,13.68,27.87.506,31.417.506,31.417S712.905,605.964,713.944,609.119Z" transform="translate(-480.872 -401.331)" fill="#2f2e41"/>
      <circle id="Ellipse_17" data-name="Ellipse 17" cx="13.175" cy="13.175" r="13.175" transform="translate(174.358 55)" fill="#ffb8b8"/>
      <path id="Path_66" data-name="Path 66" d="M736.122,290.809s3.04,9.628,0,13.175,16.721-5.067,16.721-5.067-7.094-10.134-5.067-14.695Z" transform="translate(-548.843 -211.74)" fill="#ffb8b8"/>
      <path id="Path_67" data-name="Path 67" d="M719.456,309.254a12.98,12.98,0,0,1-1.253,1.7c-.507.507-3.547,1.013-4.054,2.027s-7.978,2.458-7.978,2.458l-2.662,1.089s-12.668,3.04-12.668,5.574-1.013,10.134-1.013,10.134-4.054,4.56-1.52,15.708a73.335,73.335,0,0,1,1.574,21.459c-1.217,14.089-4.8,29.291-1.067,30.226,6.081,1.52,23.309,2.027,28.883-5.574s6.081-14.188,12.161-14.695-1.013-21.282-1.013-21.282l7.6-49.658S723.75,304.005,719.456,309.254Z" transform="translate(-513.443 -228.086)" fill="#d0cde1"/>
      <path id="Path_68" data-name="Path 68" d="M749.578,526.227h25.274a88.4,88.4,0,0,0,0-30.134H749.578A54.222,54.222,0,0,1,749.578,526.227Z" transform="translate(-558.867 -365.922)" fill="#fff"/>
      <path id="Path_69" data-name="Path 69" d="M766.618,527.019a6.05,6.05,0,0,1,5.236.394,12.352,12.352,0,0,0,4.074,1.885,6.3,6.3,0,0,0,3.7-.565c1.472-.72,2.381-2.105,3.642-3.1.707-.558-.29-1.542-.99-.99-1.231.971-2.109,2.382-3.609,2.979a5.141,5.141,0,0,1-4.624-.526,12.88,12.88,0,0,0-3.615-1.745,7.4,7.4,0,0,0-4.183.318c-.837.311-.475,1.665.372,1.35Z" transform="translate(-570.65 -386.579)" fill="#f2f2f2"/>
      <path id="Path_70" data-name="Path 70" d="M766.618,551.018a6.05,6.05,0,0,1,5.236.394,12.351,12.351,0,0,0,4.074,1.885,6.3,6.3,0,0,0,3.7-.565c1.472-.72,2.381-2.105,3.642-3.1.707-.558-.29-1.542-.99-.99-1.231.971-2.109,2.382-3.609,2.979a5.141,5.141,0,0,1-4.624-.526,12.882,12.882,0,0,0-3.615-1.745,7.4,7.4,0,0,0-4.183.318c-.837.311-.475,1.665.372,1.35Z" transform="translate(-570.65 -404.044)" fill="#f2f2f2"/>
      <path id="Path_71" data-name="Path 71" d="M838.4,429.375l-18.242,12.668s-10.641,11.148-3.04,11.148,10.641-9.628,10.641-9.628l23.309-10.134Z" transform="translate(-606.027 -317.37)" fill="#ffb8b8"/>
      <path id="Path_72" data-name="Path 72" d="M712.156,207.988l-10.572-5.538-6.633,1.029a11.858,11.858,0,0,0-9.747,9.1l-1.24,5.478,7.519-.289,2.1-4.9v4.821l3.47-.133,2.014-7.8,1.259,8.307,12.334-.252Z" transform="translate(-511.118 -152.234)" fill="#2f2e41"/>
      <path id="Path_73" data-name="Path 73" d="M855.142,314.079l3.547-1.013s35.977,14.695,34.963,27.363.507,12.668-5.574,13.175-23.815-5.574-23.309-6.587,4.054-6.081,4.054-6.081l-13.681-10.641Z" transform="translate(-635.687 -232.731)" fill="#d0cde1"/>
      <circle id="Ellipse_18" data-name="Ellipse 18" cx="2.027" cy="2.027" r="2.027" transform="translate(198.68 66.147)" fill="#ffb8b8"/>
      <path id="Path_74" data-name="Path 74" d="M857.483,383.253c13.224-.713,26.631,1.164,39.641-2.036.943-.232.543-1.688-.4-1.455-12.868,3.165-26.159,1.277-39.24,1.982-.966.052-.972,1.562,0,1.509Z" transform="translate(-636.861 -281.247)" fill="#3f3d56"/>
      <path id="Path_75" data-name="Path 75" d="M1028.859,368.926l20.973-14.1a88.393,88.393,0,0,0-16.816-25.006l-20.973,14.1A54.22,54.22,0,0,1,1028.859,368.926Z" transform="translate(-749.866 -244.92)" fill="#fff"/>
      <path id="Path_76" data-name="Path 76" d="M1051.132,379.255a6.05,6.05,0,0,1,4.565-2.6,12.351,12.351,0,0,0,4.432-.709,6.3,6.3,0,0,0,2.752-2.533c.82-1.419.8-3.076,1.292-4.6.276-.857-1.1-1.118-1.374-.269-.48,1.492-.421,3.154-1.332,4.486a5.141,5.141,0,0,1-4.131,2.144,12.878,12.878,0,0,0-3.974.57,7.393,7.393,0,0,0-3.294,2.6c-.521.725.535,1.647,1.062.913Z" transform="translate(-777.435 -272.725)" fill="#f2f2f2"/>
      <path id="Path_77" data-name="Path 77" d="M1065.005,399.881a6.05,6.05,0,0,1,4.565-2.6,12.351,12.351,0,0,0,4.432-.709,6.3,6.3,0,0,0,2.754-2.533c.82-1.419.8-3.076,1.292-4.6.276-.857-1.1-1.118-1.374-.269-.48,1.492-.421,3.154-1.332,4.485a5.141,5.141,0,0,1-4.131,2.144,12.879,12.879,0,0,0-3.974.57,7.393,7.393,0,0,0-3.294,2.6C1063.422,399.694,1064.478,400.615,1065.005,399.881Z" transform="translate(-787.531 -287.734)" fill="#f2f2f2"/>
      <rect id="Rectangle_299" data-name="Rectangle 299" width="106" height="27.291" transform="translate(0.089 13.768) rotate(0.187)" fill="#3f3d56"/>
      <circle id="Ellipse_19" data-name="Ellipse 19" cx="7.426" cy="7.426" r="7.426" transform="translate(5.286 19.988)" fill="#7de2bb"/>
      <rect id="Rectangle_300" data-name="Rectangle 300" width="30.723" height="2.184" transform="translate(28.312 21.204) rotate(0.187)" fill="#7de2bb"/>
      <rect id="Rectangle_301" data-name="Rectangle 301" width="67.706" height="2.184" transform="translate(28.295 26.445) rotate(0.187)" fill="#7de2bb"/>
      <rect id="Rectangle_302" data-name="Rectangle 302" width="67.706" height="2.184" transform="translate(28.278 31.687) rotate(0.187)" fill="#7de2bb"/>
      <rect id="Rectangle_303" data-name="Rectangle 303" width="106" height="27.291" transform="translate(0.089 86.469) rotate(0.187)" fill="#3f3d56"/>
      <circle id="Ellipse_20" data-name="Ellipse 20" cx="7.426" cy="7.426" r="7.426" transform="translate(5.286 92.689)" fill="#7de2bb"/>
      <rect id="Rectangle_304" data-name="Rectangle 304" width="30.723" height="2.184" transform="translate(28.312 93.904) rotate(0.187)" fill="#7de2bb"/>
      <rect id="Rectangle_305" data-name="Rectangle 305" width="67.706" height="2.184" transform="translate(28.295 99.146) rotate(0.187)" fill="#7de2bb"/>
      <rect id="Rectangle_306" data-name="Rectangle 306" width="67.706" height="2.184" transform="translate(28.278 104.388) rotate(0.187)" fill="#7de2bb"/>
      <rect id="Rectangle_307" data-name="Rectangle 307" width="106" height="27.291" transform="translate(131.596 77.437) rotate(179.813)" fill="#3f3d56"/>
      <circle id="Ellipse_21" data-name="Ellipse 21" cx="7.426" cy="7.426" r="7.426" transform="translate(111.458 56.365)" fill="#7de2bb"/>
      <rect id="Rectangle_308" data-name="Rectangle 308" width="30.723" height="2.184" transform="translate(103.291 59.766) rotate(179.813)" fill="#7de2bb"/>
      <rect id="Rectangle_309" data-name="Rectangle 309" width="67.706" height="2.184" transform="translate(103.308 65.007) rotate(179.813)" fill="#7de2bb"/>
      <rect id="Rectangle_310" data-name="Rectangle 310" width="67.706" height="2.184" transform="translate(103.325 70.249) rotate(179.813)" fill="#7de2bb"/>
    </g>
    <g id="layer1" transform="translate(-27.532 130.708) rotate(-20)">
      <path id="path1575" d="M20.608,0c-.064,0-.131,0-.2.009-2.62.452-4.06,3.222-4.269,5.665-.305,2.216.672,5.065,3.106,5.562a2.385,2.385,0,0,0,1.065-.057c2.931-.983,4.242-4.453,3.818-7.328C24.008,1.991,22.608-.029,20.608,0ZM9.5.116C7.873.156,6.6,1.808,6.346,3.361c-.544,3.077.855,6.9,4.061,7.872a2.5,2.5,0,0,0,.914.025c2.166-.361,3.084-2.79,2.994-4.751C14.249,3.921,12.906.93,10.219.2A2.544,2.544,0,0,0,9.5.116Zm18.2,8.738c-2.818.169-4.75,2.98-5.025,5.605-.373,1.893.637,4.426,2.8,4.577,3.013-.037,5.068-3.256,5.153-6.026C30.821,11.179,29.742,8.955,27.705,8.854ZM3.042,9.478A2.857,2.857,0,0,0,.272,11.4c-1.045,3.26,1.054,7.388,4.506,8.073a2.831,2.831,0,0,0,3.064-2.191,6.709,6.709,0,0,0-3.43-7.447A2.847,2.847,0,0,0,3.042,9.478Zm12.632,5.845A8.555,8.555,0,0,0,9.415,18.3,17.044,17.044,0,0,0,5.9,25.385a3.118,3.118,0,0,0,2.82,4.056c2.417.067,4.495-1.593,6.9-1.716,2.039-.311,3.866.75,5.7,1.444,1.561.668,3.718.412,4.515-1.268.627-1.713-.3-3.538-1.06-5.059-1.559-2.468-3.23-5.063-5.786-6.6A6.2,6.2,0,0,0,15.674,15.323Z" transform="translate(118.999 256.274)" fill="#333"/>
    </g>
  </g>
</svg>
