<svg xmlns="http://www.w3.org/2000/svg" xmlns:xlink="http://www.w3.org/1999/xlink" width="25" height="25" viewBox="0 0 25 25">
  <defs>
    <clipPath id="clip-path">
      <rect id="Rectangle_389" data-name="Rectangle 389" width="25" height="25" transform="translate(275 23)" fill="#b8bec0" stroke="#707070" stroke-width="1"/>
    </clipPath>
  </defs>
  <g id="Mask_Group_255" data-name="Mask Group 255" transform="translate(-275 -23)" clip-path="url(#clip-path)">
    <path id="notification_3_" data-name="notification (3)" d="M18.75,19.58H17.48V8.643c0-3.625-2.633-6.174-6.641-6.545V.977a.977.977,0,0,0-1.953,0V2.1c-4.008.371-6.641,2.92-6.641,6.545V19.58H.977a.977.977,0,0,0,0,1.953H7.294a2.686,2.686,0,1,0,5.138,0H18.75a.977.977,0,0,0,0-1.953ZM9.863,23.047a.732.732,0,1,1,.732-.732A.733.733,0,0,1,9.863,23.047ZM4.2,17.725h8.4a.977.977,0,0,0,0-1.953H4.2V8.643C4.2,5.281,7.081,4.043,9.78,4h.166c2.7.038,5.581,1.276,5.581,4.638V19.58H4.2Zm0,0" transform="translate(277.637 23)" fill="#b8bec0"/>
  </g>
</svg>
