<svg xmlns="http://www.w3.org/2000/svg" xmlns:xlink="http://www.w3.org/1999/xlink" width="30" height="30" viewBox="0 0 30 30">
  <defs>
    <clipPath id="clip-path">
      <rect id="Rectangle_314" data-name="Rectangle 314" width="30" height="30" transform="translate(73 402)" fill="#7de2bb" stroke="#707070" stroke-width="1"/>
    </clipPath>
  </defs>
  <g id="Mask_Group_14" data-name="Mask Group 14" transform="translate(-73 -402)" clip-path="url(#clip-path)">
    <g id="camera" transform="translate(73 402)">
      <g id="Group_1316" data-name="Group 1316">
        <g id="Group_1315" data-name="Group 1315">
          <path id="Path_80" data-name="Path 80" d="M29,6.873a3.225,3.225,0,0,0-2.367-1H21.9V5.817a2.56,2.56,0,0,0-.77-1.854,2.609,2.609,0,0,0-1.854-.77H10.722A2.629,2.629,0,0,0,8.07,5.817v.057H3.365A3.225,3.225,0,0,0,1,6.873,3.39,3.39,0,0,0,0,9.24v14.2a3.225,3.225,0,0,0,1,2.367,3.39,3.39,0,0,0,2.367,1h23.27a3.225,3.225,0,0,0,2.367-1,3.39,3.39,0,0,0,1-2.367V9.24A3.225,3.225,0,0,0,29,6.873Zm-.485,16.568h-.029a1.85,1.85,0,0,1-1.854,1.854H3.365a1.85,1.85,0,0,1-1.854-1.854V9.24A1.85,1.85,0,0,1,3.365,7.386h5.5a.767.767,0,0,0,.77-.77V5.789a1.073,1.073,0,0,1,1.112-1.112h8.527A1.073,1.073,0,0,1,20.39,5.789v.827a.767.767,0,0,0,.77.77h5.5A1.85,1.85,0,0,1,28.517,9.24Z" fill="#7de2bb"/>
          <path id="Path_81" data-name="Path 81" d="M15,9.325a7.01,7.01,0,1,0,4.962,2.053A7.028,7.028,0,0,0,15,9.325Zm3.878,10.922a5.508,5.508,0,0,1-7.757,0,5.452,5.452,0,0,1-1.6-3.878,5.573,5.573,0,0,1,1.6-3.878A5.452,5.452,0,0,1,15,10.894a5.573,5.573,0,0,1,3.878,1.6,5.452,5.452,0,0,1,1.6,3.878A5.336,5.336,0,0,1,18.878,20.247Z" fill="#7de2bb"/>
          <circle id="Ellipse_25" data-name="Ellipse 25" cx="1.397" cy="1.397" r="1.397" transform="translate(23.755 9.297)" fill="#7de2bb"/>
        </g>
      </g>
    </g>
  </g>
</svg>
