<svg xmlns="http://www.w3.org/2000/svg" xmlns:xlink="http://www.w3.org/1999/xlink" width="20" height="20" viewBox="0 0 20 20">
  <defs>
    <clipPath id="clip-path">
      <rect id="Rectangle_294" data-name="Rectangle 294" width="20" height="20" transform="translate(56 401)" fill="#fff" stroke="#707070" stroke-width="1"/>
    </clipPath>
  </defs>
  <g id="Mask_Group_10" data-name="Mask Group 10" transform="translate(-56 -401)" clip-path="url(#clip-path)">
    <g id="pawprint" transform="translate(56 402.26)">
      <path id="Path_10" data-name="Path 10" d="M13.374,9.35a4.87,4.87,0,0,0-8.2,0L3.006,12.733a3.082,3.082,0,0,0,3.836,4.485l.04-.018a6.059,6.059,0,0,1,4.826.018,3.065,3.065,0,0,0,1.237.262,3.1,3.1,0,0,0,.69-.078,3.083,3.083,0,0,0,1.909-4.669ZM14.4,15.638a1.9,1.9,0,0,1-2.221.507,7.234,7.234,0,0,0-5.809,0l-.026.012a1.91,1.91,0,0,1-2.351-2.791L6.161,9.982a3.7,3.7,0,0,1,6.226,0l2.168,3.383a1.9,1.9,0,0,1-.156,2.272Zm0,0"/>
      <path id="Path_11" data-name="Path 11" d="M3.59,9.345A2.365,2.365,0,0,0,4.97,7.881a3.055,3.055,0,0,0-.054-2.106,3.057,3.057,0,0,0-1.372-1.6,2.365,2.365,0,0,0-2-.161A2.707,2.707,0,0,0,.214,7.585a2.856,2.856,0,0,0,2.568,1.91,2.239,2.239,0,0,0,.808-.15ZM1.308,7.164A1.546,1.546,0,0,1,1.96,5.109a1.088,1.088,0,0,1,.392-.072,1.322,1.322,0,0,1,.631.17,1.883,1.883,0,0,1,.838.99,1.882,1.882,0,0,1,.042,1.3,1.212,1.212,0,0,1-.695.759h0A1.545,1.545,0,0,1,1.308,7.164Zm0,0"/>
      <path id="Path_12" data-name="Path 12" d="M7.8,6.695a3.166,3.166,0,0,0,2.938-3.347A3.167,3.167,0,0,0,7.8,0,3.166,3.166,0,0,0,4.86,3.348,3.166,3.166,0,0,0,7.8,6.695Zm0-5.522A2.005,2.005,0,0,1,9.563,3.348,2,2,0,0,1,7.8,5.522,2,2,0,0,1,6.032,3.348,2.005,2.005,0,0,1,7.8,1.172Zm0,0"/>
      <path id="Path_13" data-name="Path 13" d="M12.871,7.517h0a2.4,2.4,0,0,0,.757.122A3.045,3.045,0,0,0,16.4,5.458a3.283,3.283,0,0,0-.047-2.265A2.483,2.483,0,0,0,12.671,1.97a3.283,3.283,0,0,0-1.393,1.786,2.9,2.9,0,0,0,1.593,3.761Zm-.48-3.392a2.111,2.111,0,0,1,.888-1.153,1.314,1.314,0,0,1,1.988.661,2.111,2.111,0,0,1,.021,1.455A1.743,1.743,0,0,1,13.241,6.4a1.743,1.743,0,0,1-.85-2.279Zm0,0"/>
      <path id="Path_14" data-name="Path 14" d="M19.058,7.126h0a2.709,2.709,0,0,0-3.725.8,2.707,2.707,0,0,0,.326,3.793,2.3,2.3,0,0,0,1.379.445,2.97,2.97,0,0,0,2.346-1.242,2.708,2.708,0,0,0-.326-3.794Zm-.616,3.1a1.546,1.546,0,0,1-2.085.552,1.546,1.546,0,0,1-.081-2.154,1.8,1.8,0,0,1,1.4-.771,1.145,1.145,0,0,1,.689.219,1.547,1.547,0,0,1,.081,2.154Zm0,0"/>
    </g>
  </g>
</svg>
