<svg xmlns="http://www.w3.org/2000/svg" xmlns:xlink="http://www.w3.org/1999/xlink" width="312" height="302" viewBox="0 0 312 302">
  <defs>
    <clipPath id="clip-path">
      <rect id="Rectangle_298" data-name="Rectangle 298" width="312" height="302" transform="translate(79.694 179)" fill="#fff" stroke="#707070" stroke-width="1"/>
    </clipPath>
  </defs>
  <g id="Mask_Group_12" data-name="Mask Group 12" transform="translate(-79.694 -179)" clip-path="url(#clip-path)">
    <g id="undraw_Access_account_re_8spm" transform="translate(85.51 179)">
      <path id="Path_1" data-name="Path 1" d="M119.692,281.759l-2.648-10.444a135.622,135.622,0,0,0-14.388-5.162l-.334,4.854-1.356-5.347c-6.064-1.733-10.189-2.5-10.189-2.5s5.571,21.188,17.259,37.387l13.617,2.392-10.579,1.525a54.877,54.877,0,0,0,4.731,5.014c17,15.78,35.937,23.021,42.294,16.171s-2.271-25.194-19.271-40.973a72.252,72.252,0,0,0-18.518-11.908Z" transform="translate(-90.777 -27.709)" fill="#f2f2f2"/>
      <path id="Path_2" data-name="Path 2" d="M144.471,270.694l3.132-10.309a135.606,135.606,0,0,0-9.648-11.856l-2.8,3.982,1.6-5.278c-4.3-4.616-7.432-7.4-7.432-7.4s-6.182,21.018-4.551,40.926l10.421,9.087-9.846-4.163a54.865,54.865,0,0,0,1.459,6.739c6.4,22.3,18.864,38.282,27.847,35.705s11.079-22.741,4.683-45.037a72.243,72.243,0,0,0-9.7-19.766Z" transform="translate(-90.373 -27.989)" fill="#f2f2f2"/>
      <path id="Path_22" data-name="Path 22" d="M299.876,101.943h-1.652V56.691A26.191,26.191,0,0,0,272.033,30.5H176.158a26.191,26.191,0,0,0-26.191,26.191V304.95a26.191,26.191,0,0,0,26.191,26.191h95.875a26.191,26.191,0,0,0,26.191-26.191v-170.8h1.652Z" transform="translate(-90.067 -30.5)" fill="#e6e6e6"/>
      <path id="Path_23" data-name="Path 23" d="M273,37.23H260.49a9.293,9.293,0,0,1-8.6,12.8H196.96a9.293,9.293,0,0,1-8.6-12.8H176.668a19.56,19.56,0,0,0-19.56,19.56v247.9a19.56,19.56,0,0,0,19.56,19.56H273a19.56,19.56,0,0,0,19.56-19.56h0V56.789A19.559,19.559,0,0,0,273,37.23Z" transform="translate(-89.982 -30.419)" fill="#fff"/>
      <circle id="Ellipse_1" data-name="Ellipse 1" cx="9.87" cy="9.87" r="9.87" transform="translate(137.242 95.691)" fill="#fff"/>
      <path id="Path_8" data-name="Path 8" d="M253.151,166H195.628a2.068,2.068,0,0,1-2.066-2.066V106.413a2.068,2.068,0,0,1,2.066-2.066h57.523a2.068,2.068,0,0,1,2.066,2.066v57.523A2.068,2.068,0,0,1,253.151,166Zm-57.523-60.828a1.24,1.24,0,0,0-1.239,1.239v57.523a1.24,1.24,0,0,0,1.239,1.239h57.523a1.241,1.241,0,0,0,1.239-1.239V106.414a1.241,1.241,0,0,0-1.239-1.239Z" transform="translate(-89.545 -29.614)" fill="#ccc"/>
      <rect id="Rectangle_1" data-name="Rectangle 1" width="88.223" height="0.826" transform="translate(88.227 180.482)" fill="#7de2bb"/>
      <circle id="Ellipse_2" data-name="Ellipse 2" cx="2.786" cy="2.786" r="2.786" transform="translate(88.227 169.751)" fill="#fff"/>
      <rect id="Rectangle_2" data-name="Rectangle 2" width="88.223" height="0.826" transform="translate(88.227 208.342)" fill="#7de2bb"/>
      <circle id="Ellipse_3" data-name="Ellipse 3" cx="2.786" cy="2.786" r="2.786" transform="translate(88.227 197.611)" fill="#fff"/>
      <path id="Path_16" data-name="Path 16" d="M263.893,267.881H236.012a1.818,1.818,0,0,1-1.817-1.816v-9.772a1.819,1.819,0,0,1,1.817-1.817h27.881a1.819,1.819,0,0,1,1.816,1.817v9.772a1.818,1.818,0,0,1-1.817,1.817Z" transform="translate(-89.057 -27.813)" fill="#fff"/>
      <circle id="Ellipse_7" data-name="Ellipse 7" cx="2.786" cy="2.786" r="2.786" transform="translate(97.316 169.751)" fill="#fff"/>
      <circle id="Ellipse_8" data-name="Ellipse 8" cx="2.786" cy="2.786" r="2.786" transform="translate(106.404 169.751)" fill="#fff"/>
      <circle id="Ellipse_9" data-name="Ellipse 9" cx="2.786" cy="2.786" r="2.786" transform="translate(97.316 197.611)" fill="#fff"/>
      <circle id="Ellipse_10" data-name="Ellipse 10" cx="2.786" cy="2.786" r="2.786" transform="translate(106.404 197.611)" fill="#fff"/>
      <path id="Path_88" data-name="Path 88" d="M390.227,328.511H100.4c-.62,0-1.123-.22-1.123-.492s.5-.492,1.123-.492H390.227c.62,0,1.123.22,1.123.492S390.847,328.511,390.227,328.511Z" transform="translate(-90.675 -26.937)" fill="#3f3d56"/>
      <path id="Path_17" data-name="Path 17" d="M316.089,225.885a4.074,4.074,0,0,1,.569.318l18.106-7.728.646-4.77,7.234-.044-.427,10.939-23.9,6.32a4.285,4.285,0,0,1-.181.488,4.131,4.131,0,1,1-2.05-5.523Z" transform="translate(-88.145 -28.303)" fill="#ffb8b8"/>
      <path id="Path_18" data-name="Path 18" d="M254.17,293.417h-4.949l-2.354-19.089h7.3Z" transform="translate(2.961 3.29)" fill="#ffb8b8"/>
      <path id="Path_19" data-name="Path 19" d="M245.771,291.794h9.544V297.8H239.762A6.009,6.009,0,0,1,245.771,291.794Z" transform="translate(2.876 3.5)" fill="#2f2e41"/>
      <path id="Path_20" data-name="Path 20" d="M273.211,292.034l-4.925.485-4.215-18.766,7.269-.716Z" transform="translate(3.167 3.275)" fill="#ffb8b8"/>
      <path id="Path_21" data-name="Path 21" d="M6.009,0h9.544V6.009H0A6.009,6.009,0,0,1,6.009,0Z" transform="translate(261.814 295.322) rotate(-5.625)" fill="#2f2e41"/>
      <circle id="Ellipse_13" data-name="Ellipse 13" cx="9.915" cy="9.915" r="9.915" transform="translate(248.594 145.327)" fill="#ffb8b8"/>
      <path id="Path_22-2" data-name="Path 22" d="M339.031,320.7a1.8,1.8,0,0,1-1.782-1.492c-2.562-14.22-10.935-60.714-11.135-62a.573.573,0,0,1-.006-.089v-3.467a.6.6,0,0,1,.113-.352l1.106-1.549a.6.6,0,0,1,.462-.252c6.306-.3,26.959-1.162,27.957.084h0c1,1.253.648,5.049.567,5.8l0,.078,9.279,59.338a1.822,1.822,0,0,1-1.5,2.073l-5.8.955a1.825,1.825,0,0,1-2.029-1.248c-1.792-5.728-7.8-24.995-9.886-32.45a.2.2,0,0,0-.4.056c.1,7.107.356,25.239.442,31.5l.009.674a1.824,1.824,0,0,1-1.652,1.831l-5.588.508C339.144,320.7,339.087,320.7,339.031,320.7Z" transform="translate(-87.955 -27.856)" fill="#2f2e41"/>
      <path id="Path_99" data-name="Path 99" d="M340.167,197.562a8.29,8.29,0,0,0-3.36,4.842,45.888,45.888,0,0,0-1.972,10.963l-.628,11.141-7.773,29.537c6.737,5.7,10.623,4.4,19.691-.258s10.1,1.555,10.1,1.555l1.813-25.132,2.591-27.463a12.177,12.177,0,0,0-1.962-1.887,20.046,20.046,0,0,0-17.133-3.631Z" transform="translate(-87.951 -28.507)" fill="#fff"/>
      <path id="Path_23-2" data-name="Path 23" d="M337.577,231.8a4.248,4.248,0,0,1,.606.284l17.9-8.96.3-4.854,7.385-.509.4,11.066-23.924,7.911a4.237,4.237,0,1,1-2.661-4.938Z" transform="translate(-87.886 -28.254)" fill="#ffb8b8"/>
      <path id="Path_101" data-name="Path 101" d="M360.215,202.805c4.4,1.555,5.181,18.4,5.181,18.4-5.182-2.85-11.4,1.814-11.4,1.814s-1.3-4.4-2.85-10.1a9.9,9.9,0,0,1,2.073-9.327S355.81,201.25,360.215,202.805Z" transform="translate(-87.659 -28.44)" fill="#fff"/>
      <path id="Path_102" data-name="Path 102" d="M355.229,186.688c-1.235-.988-2.921.808-2.921.808l-.988-8.894s-6.177.74-10.13-.247-4.571,3.583-4.571,3.583a31.723,31.723,0,0,1-.123-5.559c.247-2.224,3.459-4.447,9.141-5.93s8.647,4.941,8.647,4.941C358.238,177.366,356.465,187.676,355.229,186.688Z" transform="translate(-87.831 -28.824)" fill="#2f2e41"/>
    </g>
  </g>
</svg>
