<svg xmlns="http://www.w3.org/2000/svg" xmlns:xlink="http://www.w3.org/1999/xlink" width="30" height="30" viewBox="0 0 30 30">
  <defs>
    <clipPath id="clip-path">
      <rect id="Rectangle_315" data-name="Rectangle 315" width="30" height="30" transform="translate(73 465)" fill="#7de2bb" stroke="#707070" stroke-width="1"/>
    </clipPath>
  </defs>
  <g id="Mask_Group_15" data-name="Mask Group 15" transform="translate(-73 -465)" clip-path="url(#clip-path)">
    <g id="gallery" transform="translate(73 465)">
      <g id="Group_1318" data-name="Group 1318">
        <g id="Group_1317" data-name="Group 1317">
          <path id="Path_82" data-name="Path 82" d="M15.192,11.134a3.06,3.06,0,1,0,3.06,3.06A3.06,3.06,0,0,0,15.192,11.134Zm0,4.663a1.6,1.6,0,0,1,0-3.206h0a1.6,1.6,0,0,1,0,3.206Z" fill="#7de2bb"/>
          <path id="Path_83" data-name="Path 83" d="M27.4,4.139,7.506,1.88A2.732,2.732,0,0,0,5.356,2.5,2.769,2.769,0,0,0,4.3,4.394L3.936,7.381H2.806A2.928,2.928,0,0,0,0,10.405v14.9A2.769,2.769,0,0,0,2.7,28.146H22.806a2.99,2.99,0,0,0,3.06-2.842v-.583a3.643,3.643,0,0,0,1.384-.583,3.024,3.024,0,0,0,1.056-1.967L29.983,7.381A2.951,2.951,0,0,0,27.4,4.139ZM24.409,25.305a1.534,1.534,0,0,1-1.6,1.384h-20a1.311,1.311,0,0,1-1.349-1.272q0-.056,0-.112v-2.7L7.1,18.456a1.749,1.749,0,0,1,2.259.109l3.971,3.5a3.425,3.425,0,0,0,2.149.8,3.315,3.315,0,0,0,1.749-.474l7.177-4.153v7.067Zm0-8.78-7.942,4.627a1.858,1.858,0,0,1-2.149-.182l-4.007-3.534a3.242,3.242,0,0,0-4.044-.146l-4.809,3.5V10.405A1.471,1.471,0,0,1,2.806,8.839h20a1.676,1.676,0,0,1,1.6,1.566v6.12Zm4.118-9.341V7.2L26.814,21.99a1.239,1.239,0,0,1-.474.984c-.146.146-.474.219-.474.291V10.405a3.133,3.133,0,0,0-3.06-3.024H5.393L5.721,4.54a1.676,1.676,0,0,1,.546-.947A1.676,1.676,0,0,1,7.36,3.3L27.215,5.6A1.457,1.457,0,0,1,28.527,7.185Z" fill="#7de2bb"/>
        </g>
      </g>
    </g>
  </g>
</svg>
