<svg xmlns="http://www.w3.org/2000/svg" xmlns:xlink="http://www.w3.org/1999/xlink" width="25" height="25" viewBox="0 0 25 25">
  <defs>
    <clipPath id="clip-path">
      <rect id="Rectangle_388" data-name="Rectangle 388" width="25" height="25" transform="translate(195 23)" fill="#b8bec0" stroke="#707070" stroke-width="1"/>
    </clipPath>
  </defs>
  <g id="Mask_Group_254" data-name="Mask Group 254" transform="translate(-195 -23)" clip-path="url(#clip-path)">
    <g id="calendar_4_" data-name="calendar (4)" transform="translate(195 23)">
      <g id="Group_1320" data-name="Group 1320">
        <g id="Group_1319" data-name="Group 1319">
          <path id="Path_301" data-name="Path 301" d="M13.623,17.773a1.955,1.955,0,0,0,1.953,1.953h2.295a1.955,1.955,0,0,0,1.953-1.953V15.479a1.955,1.955,0,0,0-1.953-1.953H15.576a1.955,1.955,0,0,0-1.953,1.953Zm1.953-2.295h2.295v2.295h-2.3Z" fill="#b8bec0"/>
          <circle id="Ellipse_104" data-name="Ellipse 104" cx="0.977" cy="0.977" r="0.977" transform="translate(17.871 9.277)" fill="#b8bec0"/>
          <circle id="Ellipse_105" data-name="Ellipse 105" cx="0.977" cy="0.977" r="0.977" transform="translate(13.623 9.277)" fill="#b8bec0"/>
          <path id="Path_302" data-name="Path 302" d="M24.023,17.188A.977.977,0,0,0,25,16.211V5.859a3.911,3.911,0,0,0-3.906-3.906h-1.27V.977a.977.977,0,0,0-1.953,0v.977H13.428V.977a.977.977,0,0,0-1.953,0v.977H7.08V.977a.977.977,0,0,0-1.953,0v.977H3.906A3.911,3.911,0,0,0,0,5.859V21.094A3.911,3.911,0,0,0,3.906,25H21.094A3.911,3.911,0,0,0,25,21.094a.977.977,0,0,0-1.953,0,1.955,1.955,0,0,1-1.953,1.953H3.906a1.955,1.955,0,0,1-1.953-1.953V5.859A1.955,1.955,0,0,1,3.906,3.906H5.127v.977a.977.977,0,0,0,1.953,0V3.906h4.395v.977a.977.977,0,0,0,1.953,0V3.906h4.443v.977a.977.977,0,0,0,1.953,0V3.906h1.27a1.955,1.955,0,0,1,1.953,1.953V16.211A.977.977,0,0,0,24.023,17.188Z" fill="#b8bec0"/>
          <circle id="Ellipse_106" data-name="Ellipse 106" cx="0.977" cy="0.977" r="0.977" transform="translate(5.127 17.773)" fill="#b8bec0"/>
          <circle id="Ellipse_107" data-name="Ellipse 107" cx="0.977" cy="0.977" r="0.977" transform="translate(5.127 9.277)" fill="#b8bec0"/>
          <circle id="Ellipse_108" data-name="Ellipse 108" cx="0.977" cy="0.977" r="0.977" transform="translate(5.127 13.525)" fill="#b8bec0"/>
          <circle id="Ellipse_109" data-name="Ellipse 109" cx="0.977" cy="0.977" r="0.977" transform="translate(9.375 13.525)" fill="#b8bec0"/>
          <circle id="Ellipse_110" data-name="Ellipse 110" cx="0.977" cy="0.977" r="0.977" transform="translate(9.375 9.277)" fill="#b8bec0"/>
          <circle id="Ellipse_111" data-name="Ellipse 111" cx="0.977" cy="0.977" r="0.977" transform="translate(9.375 17.773)" fill="#b8bec0"/>
        </g>
      </g>
    </g>
  </g>
</svg>
