<svg xmlns="http://www.w3.org/2000/svg" xmlns:xlink="http://www.w3.org/1999/xlink" width="40" height="40" viewBox="0 0 40 40">
  <defs>
    <clipPath id="clip-path">
      <rect id="Rectangle_311" data-name="Rectangle 311" width="40" height="40" transform="translate(166 249)" fill="#7de2bb" stroke="#707070" stroke-width="1"/>
    </clipPath>
  </defs>
  <g id="Mask_Group_13" data-name="Mask Group 13" transform="translate(-166 -249)" clip-path="url(#clip-path)">
    <g id="photo" transform="translate(166 251.29)">
      <g id="Group_1314" data-name="Group 1314" transform="translate(0 0)">
        <g id="Group_1313" data-name="Group 1313">
          <circle id="Ellipse_24" data-name="Ellipse 24" cx="2.748" cy="2.748" r="2.748" transform="translate(12.328 8.74)" fill="#7de2bb"/>
          <path id="Path_78" data-name="Path 78" d="M37.634,24.466A8.463,8.463,0,0,0,32.9,22.214V8.244a5.5,5.5,0,0,0-1.565-3.817,5.333,5.333,0,0,0-3.817-1.565H5.382A5.5,5.5,0,0,0,1.565,4.427,5.333,5.333,0,0,0,0,8.244V31.031a5.5,5.5,0,0,0,1.565,3.817,5.333,5.333,0,0,0,3.817,1.565H26.794a8.075,8.075,0,0,0,10.84-11.947ZM2.023,8.244a3.2,3.2,0,0,1,.992-2.328,3.349,3.349,0,0,1,2.366-.992H27.519a3.389,3.389,0,0,1,3.359,3.359V20.191l-5.649-5.649a1.025,1.025,0,0,0-1.45,0l-8.511,8.55L9.5,17.29a1.025,1.025,0,0,0-1.45,0L2.023,23.4ZM5.344,34.466v-.076A3.349,3.349,0,0,1,2.977,33.4a3.483,3.483,0,0,1-.954-2.366V26.3L8.779,19.5l5.763,5.763a1.061,1.061,0,0,0,1.45,0l8.511-8.55,5.573,5.611-.344.115a3.545,3.545,0,0,0-.5.153c-.153.038-.305.115-.458.153a1.143,1.143,0,0,0-.305.153,3.546,3.546,0,0,0-.382.191l-.573.344c-.115.076-.191.115-.305.191-.076.038-.115.076-.191.115a4.6,4.6,0,0,0-.916.8,8.074,8.074,0,0,0-2.366,5.725,8.391,8.391,0,0,0,.191,1.679c.038.153.076.267.115.42.115.382.229.763.382,1.145v.038a7,7,0,0,0,.5.916Zm30.8,0a6.038,6.038,0,0,1-8.435.076c-.153-.153-.305-.344-.458-.5-.115-.115-.229-.267-.344-.382a3.624,3.624,0,0,1-.382-.649c-.076-.153-.153-.267-.229-.42a3.224,3.224,0,0,1-.191-.649c-.038-.153-.115-.344-.153-.5a6.318,6.318,0,0,1-.115-1.221A6.126,6.126,0,0,1,27.6,25.954,5.9,5.9,0,0,1,31.87,24.2a6.126,6.126,0,0,1,4.275,1.756A5.966,5.966,0,0,1,37.9,30.229,6.1,6.1,0,0,1,36.145,34.466Z" transform="translate(0 -2.863)" fill="#7de2bb"/>
          <path id="Path_79" data-name="Path 79" d="M39.719,31.842a1.332,1.332,0,0,0-.344-.229,1.114,1.114,0,0,0-.344-.076h-.076a1.114,1.114,0,0,0-.344.076.9.9,0,0,0-.344.229L35.9,34.208a1.026,1.026,0,0,0,1.45,1.45l.611-.611v4.2a1.031,1.031,0,0,0,2.061,0v-4.2l.611.611a1.026,1.026,0,1,0,1.45-1.45Z" transform="translate(-7.123 -8.597)" fill="#7de2bb"/>
        </g>
      </g>
    </g>
  </g>
</svg>
