<svg xmlns="http://www.w3.org/2000/svg" xmlns:xlink="http://www.w3.org/1999/xlink" width="20" height="20" viewBox="0 0 20 20">
  <defs>
    <clipPath id="clip-path">
      <rect id="Rectangle_292" data-name="Rectangle 292" width="20" height="20" fill="#7de2bb" stroke="#707070" stroke-width="1"/>
    </clipPath>
  </defs>
  <g id="Mask_Group_8" data-name="Mask Group 8" clip-path="url(#clip-path)">
    <g id="padlock" transform="translate(2.5)">
      <path id="Path_5" data-name="Path 5" d="M15.625,20H4.375A1.877,1.877,0,0,1,2.5,18.125V9.375A1.877,1.877,0,0,1,4.375,7.5h11.25A1.877,1.877,0,0,1,17.5,9.375v8.75A1.877,1.877,0,0,1,15.625,20ZM4.375,8.75a.626.626,0,0,0-.625.625v8.75a.626.626,0,0,0,.625.625h11.25a.626.626,0,0,0,.625-.625V9.375a.626.626,0,0,0-.625-.625Z" transform="translate(-2.5)" fill="#7de2bb"/>
      <path id="Path_6" data-name="Path 6" d="M14.375,8.75a.625.625,0,0,1-.625-.625V5a3.75,3.75,0,0,0-7.5,0V8.125a.625.625,0,0,1-1.25,0V5A5,5,0,0,1,15,5V8.125A.625.625,0,0,1,14.375,8.75Z" transform="translate(-2.5)" fill="#7de2bb"/>
      <path id="Path_7" data-name="Path 7" d="M10,14.167A1.667,1.667,0,1,1,11.667,12.5,1.668,1.668,0,0,1,10,14.167Zm0-2.083a.417.417,0,1,0,.417.417A.417.417,0,0,0,10,12.083Z" transform="translate(-2.5)" fill="#7de2bb"/>
      <path id="Path_8" data-name="Path 8" d="M10,16.667a.625.625,0,0,1-.625-.625V13.75a.625.625,0,0,1,1.25,0v2.292A.625.625,0,0,1,10,16.667Z" transform="translate(-2.5)" fill="#7de2bb"/>
    </g>
  </g>
</svg>
