<svg xmlns="http://www.w3.org/2000/svg" xmlns:xlink="http://www.w3.org/1999/xlink" width="20" height="20" viewBox="0 0 20 20">
  <defs>
    <clipPath id="clip-path">
      <rect id="Rectangle_291" data-name="Rectangle 291" width="20" height="20" fill="#7de2bb" stroke="#707070" stroke-width="1"/>
    </clipPath>
  </defs>
  <g id="Mask_Group_7" data-name="Mask Group 7" clip-path="url(#clip-path)">
    <g id="name" transform="translate(2.511)">
      <path id="Path_1" data-name="Path 1" d="M6.823,10.011A2.278,2.278,0,1,0,4.545,7.733,2.278,2.278,0,0,0,6.823,10.011Zm0-3.67a1.4,1.4,0,1,1-1.4,1.4A1.4,1.4,0,0,1,6.823,6.341Zm0,0" transform="translate(0.666 0.606)" fill="#7de2bb"/>
      <path id="Path_2" data-name="Path 2" d="M6.945,10.312a3.418,3.418,0,0,0-2.476,1.035,3.654,3.654,0,0,0-1.022,2.586.442.442,0,0,0,.441.441H10a.442.442,0,0,0,.441-.441A3.654,3.654,0,0,0,9.42,11.348a3.418,3.418,0,0,0-2.476-1.035ZM4.359,13.493a2.694,2.694,0,0,1,.74-1.529,2.6,2.6,0,0,1,3.691,0,2.708,2.708,0,0,1,.74,1.529Zm0,0" transform="translate(0.544 1.146)" fill="#7de2bb"/>
      <path id="Path_3" data-name="Path 3" d="M12.63,0H2.057a2.2,2.2,0,0,0-2.2,2.2V17.8a2.2,2.2,0,0,0,2.2,2.2H12.63a2.2,2.2,0,0,0,2.2-2.2V2.2A2.2,2.2,0,0,0,12.63,0Zm1.322,17.8a1.325,1.325,0,0,1-1.322,1.322H2.057A1.325,1.325,0,0,1,.736,17.8V2.2A1.325,1.325,0,0,1,2.057.881H12.63A1.325,1.325,0,0,1,13.952,2.2Zm0,0" transform="translate(0.145)" fill="#7de2bb"/>
      <path id="Path_4" data-name="Path 4" d="M4.986,2.748H8.51a.441.441,0,1,0,0-.881H4.986a.441.441,0,0,0,0,.881Zm0,0" transform="translate(0.666 0.207)" fill="#7de2bb"/>
    </g>
  </g>
</svg>
