<svg xmlns="http://www.w3.org/2000/svg" xmlns:xlink="http://www.w3.org/1999/xlink" width="10" height="10" viewBox="0 0 10 10">
  <defs>
    <clipPath id="clip-path">
      <rect id="Rectangle_387" data-name="Rectangle 387" width="10" height="10" transform="translate(112 23)" fill="#333" stroke="#7de2bb" stroke-width="1"/>
    </clipPath>
  </defs>
  <g id="Mask_Group_253" data-name="Mask Group 253" transform="translate(-112 -23)" opacity="0.7" clip-path="url(#clip-path)">
    <g id="pawprint" transform="translate(112 23.63)">
      <path id="Path_296" data-name="Path 296" d="M8.576,10.005a2.435,2.435,0,0,0-4.1,0L3.391,11.7A1.541,1.541,0,0,0,5.309,13.94l.02-.009a3.03,3.03,0,0,1,2.413.009,1.533,1.533,0,0,0,.618.131,1.552,1.552,0,0,0,.345-.039A1.541,1.541,0,0,0,9.66,11.7Zm.513,3.144a.95.95,0,0,1-1.11.254,3.617,3.617,0,0,0-2.9,0l-.013.006a.955.955,0,0,1-1.176-1.4l1.084-1.692a1.849,1.849,0,0,1,3.113,0l1.084,1.691a.95.95,0,0,1-.078,1.136Zm0,0" transform="translate(-1.888 -5.331)" fill="#333" stroke="#7de2bb" stroke-width="0.049"/>
      <path id="Path_297" data-name="Path 297" d="M1.795,7.57a1.182,1.182,0,0,0,.69-.732,1.527,1.527,0,0,0-.027-1.053,1.528,1.528,0,0,0-.686-.8,1.182,1.182,0,0,0-1-.081A1.354,1.354,0,0,0,.107,6.69a1.428,1.428,0,0,0,1.284.955,1.119,1.119,0,0,0,.4-.075ZM.654,6.479A.773.773,0,0,1,.98,5.452a.544.544,0,0,1,.2-.036.661.661,0,0,1,.315.085A.941.941,0,0,1,1.911,6a.941.941,0,0,1,.021.648.606.606,0,0,1-.347.379h0a.773.773,0,0,1-.93-.544Zm0,0" transform="translate(0 -2.897)" fill="#333" stroke="#7de2bb" stroke-width="0.049"/>
      <path id="Path_298" data-name="Path 298" d="M7.544,3.347A1.583,1.583,0,0,0,9.012,1.674,1.583,1.583,0,0,0,7.544,0,1.583,1.583,0,0,0,6.075,1.674,1.583,1.583,0,0,0,7.544,3.347Zm0-2.761a1,1,0,0,1,.883,1.088,1,1,0,0,1-.883,1.087,1,1,0,0,1-.883-1.087A1,1,0,0,1,7.544.586Zm0,0" transform="translate(-3.645 0)" fill="#333" stroke="#7de2bb" stroke-width="0.049"/>
      <path id="Path_299" data-name="Path 299" d="M14.761,4.938h0A1.2,1.2,0,0,0,15.14,5a1.522,1.522,0,0,0,1.386-1.091A1.641,1.641,0,0,0,16.5,2.776a1.242,1.242,0,0,0-1.841-.612,1.641,1.641,0,0,0-.7.893,1.452,1.452,0,0,0,.8,1.881Zm-.24-1.7a1.056,1.056,0,0,1,.444-.576.657.657,0,0,1,.994.33,1.055,1.055,0,0,1,.011.727.871.871,0,0,1-1.023.658.871.871,0,0,1-.425-1.14Zm0,0" transform="translate(-8.326 -1.179)" fill="#333" stroke="#7de2bb" stroke-width="0.049"/>
      <path id="Path_300" data-name="Path 300" d="M20.566,8.575h0a1.354,1.354,0,0,0-1.862.4,1.354,1.354,0,0,0,.163,1.9,1.148,1.148,0,0,0,.69.223,1.485,1.485,0,0,0,1.173-.621,1.354,1.354,0,0,0-.163-1.9Zm-.308,1.548a.773.773,0,0,1-1.043.276.773.773,0,0,1-.041-1.077.9.9,0,0,1,.7-.385.573.573,0,0,1,.345.109.773.773,0,0,1,.04,1.077Zm0,0" transform="translate(-11.037 -5.011)" fill="#333" stroke="#7de2bb" stroke-width="0.049"/>
    </g>
  </g>
</svg>
