<svg xmlns="http://www.w3.org/2000/svg" width="30" height="30" viewBox="0 0 30 30">
  <path id="settings_1_" data-name="settings (1)" d="M27.238,11.3H26.6a12.114,12.114,0,0,0-.781-1.881l.451-.451a2.762,2.762,0,0,0,0-3.906L24.941,3.728a2.762,2.762,0,0,0-3.906,0l-.451.451A12.122,12.122,0,0,0,18.7,3.4V2.762A2.765,2.765,0,0,0,15.941,0H14.059A2.765,2.765,0,0,0,11.3,2.762V3.4a12.111,12.111,0,0,0-1.881.781l-.451-.451a2.761,2.761,0,0,0-3.906,0L3.728,5.059a2.762,2.762,0,0,0,0,3.906l.451.451A12.112,12.112,0,0,0,3.4,11.3H2.762A2.765,2.765,0,0,0,0,14.059v1.883A2.765,2.765,0,0,0,2.762,18.7H3.4a12.115,12.115,0,0,0,.781,1.881l-.451.451a2.762,2.762,0,0,0,0,3.906l1.331,1.331a2.762,2.762,0,0,0,3.906,0l.451-.451A12.123,12.123,0,0,0,11.3,26.6v.637A2.765,2.765,0,0,0,14.059,30h1.883A2.765,2.765,0,0,0,18.7,27.238V26.6a12.111,12.111,0,0,0,1.881-.781l.451.451a2.761,2.761,0,0,0,3.906,0l1.331-1.331a2.762,2.762,0,0,0,0-3.906l-.451-.451A12.112,12.112,0,0,0,26.6,18.7h.637A2.765,2.765,0,0,0,30,15.941V14.058A2.765,2.765,0,0,0,27.238,11.3ZM15,21.527A6.527,6.527,0,1,1,21.527,15,6.535,6.535,0,0,1,15,21.527Z" fill="#fff"/>
</svg>
