<svg xmlns="http://www.w3.org/2000/svg" width="23.459" height="25.592" viewBox="0 0 23.459 25.592">
  <g id="share" transform="translate(0 0)">
    <path id="Path_11221" data-name="Path 11221" d="M321.6,19.465A3.465,3.465,0,1,1,318.133,16a3.466,3.466,0,0,1,3.465,3.465Zm0,0" transform="translate(-298.94 -15.2)" fill="#fff"/>
    <path id="Path_11222" data-name="Path 11222" d="M302.933,8.531A4.265,4.265,0,1,1,307.2,4.265,4.27,4.27,0,0,1,302.933,8.531Zm0-6.931A2.666,2.666,0,1,0,305.6,4.265,2.669,2.669,0,0,0,302.933,1.6Zm0,0" transform="translate(-283.739)" fill="#fff"/>
    <path id="Path_11223" data-name="Path 11223" d="M321.6,360.8a3.465,3.465,0,1,1-3.465-3.466A3.465,3.465,0,0,1,321.6,360.8Zm0,0" transform="translate(-298.94 -339.471)" fill="#fff"/>
    <path id="Path_11224" data-name="Path 11224" d="M302.933,349.863A4.265,4.265,0,1,1,307.2,345.6,4.27,4.27,0,0,1,302.933,349.863Zm0-6.931A2.666,2.666,0,1,0,305.6,345.6,2.669,2.669,0,0,0,302.933,342.932Zm0,0" transform="translate(-283.739 -324.271)" fill="#fff"/>
    <path id="Path_11225" data-name="Path 11225" d="M22.931,190.133a3.466,3.466,0,1,1-3.466-3.465A3.466,3.466,0,0,1,22.931,190.133Zm0,0" transform="translate(-15.2 -177.338)" fill="#fff"/>
    <path id="Path_11226" data-name="Path 11226" d="M4.265,179.2a4.265,4.265,0,1,1,4.265-4.265A4.27,4.27,0,0,1,4.265,179.2Zm0-6.931a2.666,2.666,0,1,0,2.666,2.666,2.669,2.669,0,0,0-2.666-2.666Zm0,0" transform="translate(0 -162.137)" fill="#fff"/>
    <path id="Path_11227" data-name="Path 11227" d="M115.416,97.989A1.066,1.066,0,0,1,114.887,96l9.894-5.641a1.066,1.066,0,1,1,1.056,1.853l-9.894,5.641A1.059,1.059,0,0,1,115.416,97.989Zm0,0" transform="translate(-108.633 -85.705)" fill="#fff"/>
    <path id="Path_11228" data-name="Path 11228" d="M125.331,273.993a1.06,1.06,0,0,1-.527-.14l-9.894-5.641a1.066,1.066,0,0,1,1.056-1.853L125.86,272a1.066,1.066,0,0,1-.529,1.993Zm0,0" transform="translate(-108.655 -252.912)" fill="#fff"/>
  </g>
</svg>
