<svg xmlns="http://www.w3.org/2000/svg" width="333.228" height="234.663" viewBox="0 0 333.228 234.663">
  <g id="undraw_Dog_walking_re_l61p_1_" data-name="undraw_Dog_walking_re_l61p (1)" transform="translate(0 0)">
    <path id="Path_24" data-name="Path 24" d="M469.373,471.553a4.825,4.825,0,0,0-4.921-5.525l-30.906-31.249-6.105,8.535,32.3,28.033a4.852,4.852,0,0,0,9.633.206Z" transform="translate(-338.338 -324.285)" fill="#ffb8b8"/>
    <path id="Path_25" data-name="Path 25" d="M445.778,443.628l-7.888,7.88a2.027,2.027,0,0,1-2.846.011l-21.555-21.191a7.907,7.907,0,1,1,11.2-11.162L445.8,440.786A2.028,2.028,0,0,1,445.778,443.628Z" transform="translate(-329.383 -314.403)" fill="#fff"/>
    <circle id="Ellipse_14" data-name="Ellipse 14" cx="11.032" cy="11.032" r="11.032" transform="translate(77.697 68.483)" fill="#ffb8b8"/>
    <path id="Path_26" data-name="Path 26" d="M114.543,458.132l2.793,4.746,19.635-8.516-4.123-7Z" transform="translate(-63.092 -246.41)" fill="#ffb8b8"/>
    <path id="Path_27" data-name="Path 27" d="M337.942,655.411l5.5,9.346h0a6.911,6.911,0,0,1-2.451,9.462l-.194.114-9.007-15.3Z" transform="translate(-285.654 -445.811)" fill="#2f2e41"/>
    <path id="Path_28" data-name="Path 28" d="M186.6,483.36h5.507l2.62-21.241H186.6Z" transform="translate(-102.781 -254.541)" fill="#ffb8b8"/>
    <path id="Path_29" data-name="Path 29" d="M412.55,694.2H423.4a6.911,6.911,0,0,1,6.911,6.911v.224H412.55Z" transform="translate(-330.136 -467.174)" fill="#2f2e41"/>
    <path id="Path_30" data-name="Path 30" d="M357.4,590.827a2.018,2.018,0,0,1-1.628-.823l-5.311-7.213a2.021,2.021,0,0,1,.505-2.879L374.6,564.126l-14.26-37.5,30.495,2.517,1.027,32.222a16.191,16.191,0,0,1-8.106,14.564l-25.346,14.623a2.015,2.015,0,0,1-1.01.272Z" transform="translate(-295.718 -374.877)" fill="#2f2e41"/>
    <path id="Path_31" data-name="Path 31" d="M412.2,646.822a2.021,2.021,0,0,1-2.016-1.949l-1.118-31.39,13.839-.729-1.1,31.616a2.016,2.016,0,0,1-1.886,1.946l-7.579.5Q412.273,646.822,412.2,646.822Z" transform="translate(-328.22 -422.315)" fill="#2f2e41"/>
    <path id="Path_32" data-name="Path 32" d="M403.983,463.86c-3.521,0-15.819-3.96-20.088-5.372-.639.511-4.147,3.135-8.243,2.655a9.605,9.605,0,0,1-6.612-4.252c-4.109-5.576.966-29.49,5.947-48.569a15.393,15.393,0,0,1,18.2-11.176h0a15.529,15.529,0,0,1,11.718,11.4c.938,3.817.131,8.307-.458,11.586a15.745,15.745,0,0,0-.421,3.357c.289,2.313,1.9,38.581.862,40.13C404.783,463.785,404.465,463.86,403.983,463.86Z" transform="translate(-305.341 -303.357)" fill="#fff"/>
    <path id="Path_33" data-name="Path 33" d="M408.1,483.3a4.825,4.825,0,0,0,.423-7.387l.218-43.95-10.351,1.724,3.041,42.659a4.852,4.852,0,0,0,6.67,6.954Z" transform="translate(-322.335 -322.734)" fill="#ffb8b8"/>
    <path id="Path_34" data-name="Path 34" d="M408.847,445.593H397.7a2.027,2.027,0,0,1-2.021-2l-.274-30.227a7.907,7.907,0,1,1,15.814.019l-.348,30.212a2.028,2.028,0,0,1-2.021,2Z" transform="translate(-320.691 -308.139)" fill="#fff"/>
    <path id="Path_35" data-name="Path 35" d="M407.047,358.313a11.194,11.194,0,0,1-10.692-8.958,12.878,12.878,0,0,1,.413-5.846,15.7,15.7,0,0,1,21.532-9.861,6.29,6.29,0,0,1,3.3,2.838,2.93,2.93,0,0,1-1.122,3.839c-.885.4-1.994.2-2.779.771-1.127.817-.837,2.556-.334,3.855s1.073,2.869.229,3.976c-.786,1.032-2.358,1-3.6.612s-2.46-1.039-3.75-.907c-1.882.193-3.235,2.065-3.485,3.941a12.818,12.818,0,0,0,.921,5.551Z" transform="translate(-321.126 -267.811)" fill="#2f2e41"/>
    <path id="Path_36" data-name="Path 36" d="M727.7,290.552c0-30.17,24.457-101.761,54.627-101.761s54.627,71.591,54.627,101.761a54.627,54.627,0,1,1-109.255,0Z" transform="translate(-503.723 -188.791)" fill="#fff"/>
    <path id="Path_37" data-name="Path 37" d="M848.758,479.16a.449.449,0,0,1-.449-.449V290.374a.449.449,0,1,1,.9,0V478.711A.449.449,0,0,1,848.758,479.16Z" transform="translate(-570.158 -244.497)" fill="#3f3d56"/>
    <path id="Path_38" data-name="Path 38" d="M822.245,344.256a.448.448,0,0,1-.318-.132L800.306,322.5a.449.449,0,1,1,.635-.635l21.621,21.621a.449.449,0,0,1-.318.767Z" transform="translate(-543.645 -262.019)" fill="#3f3d56"/>
    <path id="Path_39" data-name="Path 39" d="M848.758,409.7a.449.449,0,0,1-.318-.767l36.209-36.209a.449.449,0,1,1,.635.635l-36.209,36.209a.448.448,0,0,1-.318.132Z" transform="translate(-570.158 -290.03)" fill="#3f3d56"/>
    <path id="Path_40" data-name="Path 40" d="M511.709,514.077c7.167-1.62,15.286,3.986,15.538,11.512a7.3,7.3,0,0,1-2.178,5.78,5.36,5.36,0,0,1-5.084,1.207c-3.345-1.118-3.524-5.78-1.729-8.269,2.43-3.371,7.243-3.947,11.063-3.546a26.215,26.215,0,0,1,12.833,5.344c7.456,5.618,12.2,14.229,16.046,22.549a113.683,113.683,0,0,1,8.516,26.762q.325,1.741.6,3.49a.679.679,0,0,0,.835.459.691.691,0,0,0,.459-.835,115.188,115.188,0,0,0-8.64-29.225c-4.023-9.016-9.1-18.369-17.165-24.386a27.372,27.372,0,0,0-13.8-5.533c-4.232-.376-9.244.52-11.875,4.2-2.076,2.9-1.865,7.73,1.347,9.752a6.132,6.132,0,0,0,5.844.117,7.485,7.485,0,0,0,3.947-4.892c1.141-4.18-.591-8.7-3.561-11.688a14.967,14.967,0,0,0-10.534-4.43,13.265,13.265,0,0,0-2.832.338c-.846.191-.468,1.485.377,1.294Z" transform="translate(-384.284 -367.064)" fill="#333"/>
    <path id="Path_41" data-name="Path 41" d="M584.237,687.073l-4.454-7.6,5.492-3.216,4.454,7.6h0a3.182,3.182,0,1,1-5.492,3.216Z" transform="translate(-422.251 -457.291)" fill="#fff"/>
    <circle id="Ellipse_15" data-name="Ellipse 15" cx="3.916" cy="3.916" r="3.916" transform="translate(143.344 206.144)" fill="#fff"/>
    <path id="Path_42" data-name="Path 42" d="M622.6,687.073l-4.454-7.6,5.491-3.216,4.454,7.6a3.182,3.182,0,0,1-5.492,3.217Z" transform="translate(-443.381 -457.291)" fill="#fff"/>
    <path id="Path_43" data-name="Path 43" d="M558.572,663.8a8.332,8.332,0,0,1,8.322-8.323H593.24a3.522,3.522,0,0,1,3.518,3.518v3a10.141,10.141,0,0,1-10.129,10.129H566.895A8.332,8.332,0,0,1,558.572,663.8Z" transform="translate(-410.567 -445.846)" fill="#3f3d56"/>
    <path id="Path_44" data-name="Path 44" d="M572.1,691.718v-8.812h6.364v8.812a3.182,3.182,0,1,1-6.364,0Z" transform="translate(-418.017 -460.956)" fill="#3f3d56"/>
    <path id="Path_45" data-name="Path 45" d="M613.21,691.718v-8.812h6.364v8.812a3.182,3.182,0,1,1-6.364,0Z" transform="translate(-440.662 -460.956)" fill="#3f3d56"/>
    <path id="Path_46" data-name="Path 46" d="M662.961,623.112a3.916,3.916,0,1,1,6.107,4.9l-6.438,8.016-6.107-4.9Z" transform="translate(-464.52 -427.214)" fill="#fff"/>
    <path id="Path_47" data-name="Path 47" d="M635.57,648.732l5.157-6.422a7.552,7.552,0,0,1,10.6-1.158l1.611,1.294a9,9,0,0,1,1.38,12.644l-4.249,5.291a2.827,2.827,0,0,1-3.97.433L636,652.7A2.827,2.827,0,0,1,635.57,648.732Z" transform="translate(-452.637 -437.044)" fill="#3f3d56"/>
    <path id="Path_48" data-name="Path 48" d="M663.727,621.549a2.693,2.693,0,0,1,4.2,3.372l-7.2,8.97-4.2-3.372Z" transform="translate(-464.52 -426.605)" fill="#3f3d56"/>
    <path id="Path_49" data-name="Path 49" d="M643.571,656.162l11.069,8.89a3.916,3.916,0,1,1-4.9,6.107l-11.069-8.89Z" transform="translate(-454.684 -446.225)" fill="#3f3d56"/>
    <ellipse id="Ellipse_16" data-name="Ellipse 16" cx="1.652" cy="0.918" rx="1.652" ry="0.918" transform="translate(198.565 224.762) rotate(-51.23)" fill="#fff"/>
    <path id="Path_50" data-name="Path 50" d="M539.914,709.922H229.526a.449.449,0,1,1,0-.9H539.914a.449.449,0,1,1,0,.9Z" transform="translate(-229.077 -475.342)" fill="#ccc"/>
  </g>
</svg>
